HIERARCHY
ROOT Hips
{
	OFFSET 0.00000 0.00000 0.00000
	CHANNELS 6 Xposition Yposition Zposition Yrotation Zrotation Xrotation 
	JOINT Lumbar
	{
		OFFSET 0 0 0
		CHANNELS 3 Zrotation Xrotation Yrotation
		JOINT Neck
		{
			OFFSET 0.00 0.2701 0.00
			CHANNELS 3 Zrotation Xrotation Yrotation
			End Site
			{
				OFFSET 0.00 0.1379 0.00
			}
		}
		JOINT RightShoulder
		{
			OFFSET 0.0119 0.2289 0.1181
			CHANNELS 3 Zrotation Xrotation Yrotation
			JOINT RightElbow
			{
				OFFSET 0.00 -0.1475 0.00
				CHANNELS 2 Zrotation Yrotation
				JOINT RightWrist
				{
					OFFSET 0.00 -0.1605 0.00
					CHANNELS 2 Zrotation Xrotation
					End Site
					{
						OFFSET 0.0040 -0.1068 0.0006
					}
				}
			}
		}
		JOINT LeftShoulder
		{
			OFFSET 0.0119 0.2289 -0.1181
			CHANNELS 3 Zrotation Xrotation Yrotation
			JOINT LeftElbow
			{
				OFFSET 0.00 -0.1475 0.00
				CHANNELS 2 Zrotation Yrotation
				JOINT LeftWrist
				{
					OFFSET 0.00 -0.1605 0.00
					CHANNELS 2 Zrotation Xrotation
					End Site
					{
						OFFSET 0.0040 -0.1068 -0.0006
					}
				}
			}
		}
	}
	JOINT RightHip
	{
		OFFSET 0.0316 -0.0424 0.0458
		CHANNELS 3 Zrotation Xrotation Yrotation
		JOINT RightKnee
		{
			OFFSET 0.00 -0.2438 0.00
			CHANNELS 1 Zrotation
			JOINT RightAnkle
			{
				OFFSET 0.00 -0.2449 0.00
				CHANNELS 3 Zrotation Xrotation Yrotation
				End Site
				{
					OFFSET 0.1237 -0.0542 0.0051
				}
			}
		}
	}
	JOINT LeftHip
	{
		OFFSET 0.0316 -0.0424 -0.0458
		CHANNELS 3 Zrotation Xrotation Yrotation
		JOINT LeftKnee
		{
			OFFSET 0.00 -0.2438 0.00
			CHANNELS 1 Zrotation
			JOINT LeftAnkle
			{
				OFFSET 0.00 -0.2449 0.00
				CHANNELS 3 Zrotation Xrotation Yrotation
				End Site
				{
					OFFSET 0.1237 -0.0542 -0.0051
				}
			}
		}
	}
}
MOTION
Frames: 34
Frame Time: 0.02
0.01331 0.57145 -0.20649 184.1776 0 0.90543 2.85807 2.2066 2.11614 -16.58086 -3.98855 -0.74134 9.71631 -21.56523 12.55549 114.23137 114.30665 16.25753 3.52296 143.41486 24.25421 -58.41123 76.75416 -79.13525 -42.37306 3.41426 2.29612 10.21139 7.05636 -18.28773 8.256 -8.03534 -12.41071 19.69568 7.2126 -4.16064 -34.13826 0.4684 5.0278 12.50192
0.01333 0.57147 -0.20724 183.31442 0 0.98668 2.74366 2.41532 2.28509 -16.35897 -3.5326 -0.35251 8.7882 -21.73261 11.57308 114.06229 114.2334 16.85689 3.34353 142.95865 27.93645 -55.46279 75.07038 -76.42418 -43.03625 3.14498 2.34098 10.23897 7.70812 -18.41483 8.21693 -7.97968 -12.33018 19.77978 7.22703 -4.02183 -34.14181 0.83895 5.09852 12.11316
0.01324 0.57154 -0.20767 182.52345 0 1.14692 2.64848 2.63693 2.4121 -16.00627 -3.03968 0.06237 7.66371 -21.94309 10.54568 113.82656 114.07756 17.53654 3.13352 140.83166 32.15148 -51.72685 73.32517 -73.89296 -42.85498 2.94126 2.43572 10.17547 8.33556 -18.67591 8.22625 -7.95517 -12.32183 19.72674 7.10464 -3.90341 -33.74626 1.27234 5.18014 11.65085
0.01319 0.57158 -0.20822 181.72148 0 1.26858 2.54792 2.85105 2.53551 -15.71672 -2.53603 0.44882 6.65309 -22.17083 9.56719 113.62084 113.97684 18.19253 2.93888 139.28892 36.13076 -48.27573 71.62049 -71.26561 -43.04768 2.70087 2.50408 10.15393 8.96029 -18.87103 8.21616 -7.91985 -12.28336 19.73027 7.04325 -3.76767 -33.5077 1.67195 5.25701 11.24067
0.0132 0.57165 -0.20884 180.81759 0 1.40181 2.43106 3.0744 2.75275 -15.40453 -2.13316 0.90864 5.54072 -22.25964 8.47202 113.41591 113.81417 18.8107 2.73618 138.46825 40.15267 -45.09536 69.86067 -68.61879 -43.29954 2.47689 2.58643 10.1295 9.65162 -19.08542 8.19449 -7.86966 -12.23167 19.75566 6.98794 -3.65927 -33.36891 2.09708 5.3341 10.75254
0.01305 0.57167 -0.20925 180.14856 0 1.52907 2.35365 3.28083 2.76622 -15.11191 -1.52061 1.22102 4.59231 -22.6395 7.60795 113.19361 113.7558 19.51631 2.54448 135.76023 44.17167 -41.20325 68.20504 -66.09254 -43.22191 2.24003 2.6519 10.08984 10.19368 -19.29183 8.20867 -7.85796 -12.22533 19.70398 6.88699 -3.50352 -32.9303 2.48133 5.41229 10.40726
0.01248 0.57158 -0.20922 180.0903 0 1.6273 2.37867 3.43526 2.21671 -14.89549 -0.30212 1.11366 4.15063 -23.83661 7.39222 112.93973 114.00969 20.49403 2.38126 128.17454 48.22385 -35.24313 66.81793 -63.77712 -42.42588 1.94077 2.66143 10.02773 10.34831 -19.44952 8.31036 -7.9468 -12.32797 19.47209 6.69368 -3.18508 -31.74255 2.75327 5.49857 10.49556
0.01174 0.57145 -0.209 180.27096 0 1.71575 2.44317 3.57203 1.46626 -14.70594 1.11618 0.85744 3.87934 -25.3167 7.4103 112.67044 114.36846 21.54559 2.23203 118.77124 52.21496 -28.6576 65.54758 -61.60269 -41.32687 1.63003 2.65205 9.95386 10.34935 -19.59393 8.44649 -8.07303 -12.47428 19.16801 6.45882 -2.82402 -30.2709 2.97848 5.5841 10.72669
0.01107 0.57133 -0.20884 180.35627 0 1.80406 2.49122 3.71823 0.81409 -14.5115 2.41961 0.67321 3.52598 -26.65182 7.32128 112.40858 114.67544 22.52913 2.08269 110.2392 56.11392 -22.54427 64.24135 -59.42422 -40.3746 1.33318 2.64964 9.88736 10.40709 -19.74065 8.56671 -8.18115 -12.59926 18.89778 6.24289 -2.50062 -28.94141 3.21462 5.66485 10.87827
0.01041 0.57123 -0.20874 180.3873 0 1.91376 2.53421 3.85995 0.12862 -14.28169 3.83234 0.47251 3.18558 -28.06563 7.23415 112.14375 114.99911 23.66257 1.90598 101.42132 60.53894 -15.58012 62.84554 -56.9936 -39.35767 1.00149 2.65556 9.80967 10.51834 -19.90721 8.68966 -8.29533 -12.73087 18.61779 6.02262 -2.10025 -27.54116 3.49727 5.76756 11.0877
0.0097 0.57109 -0.20849 180.58822 0 1.97646 2.59612 4.00544 -0.53159 -14.13337 5.05659 0.26931 2.86091 -29.37233 7.19941 111.88083 115.31151 24.49849 1.7899 92.83461 63.84625 -10.28694 61.68354 -55.12415 -38.41109 0.73918 2.63927 9.75301 10.4833 -20.02821 8.81451 -8.40503 -12.86076 18.34346 5.8025 -1.85032 -26.22775 3.67016 5.82427 11.21326
0.00885 0.57085 -0.20787 181.19152 0 1.90349 2.70655 4.17549 -1.09862 -14.20761 5.77642 0.10455 2.54203 -30.39624 7.25054 111.64029 115.58739 24.50865 1.83886 84.94869 64.07562 -9.43635 60.98146 -54.73455 -37.76225 0.66826 2.56355 9.76343 10.06825 -20.0202 8.93575 -8.49628 -12.95058 18.09748 5.60054 -2.02182 -25.21166 3.55931 5.75339 11.05703
0.00794 0.57058 -0.20711 181.95885 0 1.78466 2.83319 4.3479 -1.62805 -14.36325 6.28687 -0.05947 2.23383 -31.28636 7.34708 111.40022 115.84452 24.21382 1.94828 77.43823 63.1781 -10.34435 60.54195 -54.91138 -37.192 0.66773 2.4663 9.79461 9.51274 -19.96712 9.05754 -8.58119 -13.04028 17.86147 5.39948 -2.34669 -24.29735 3.33801 5.63635 10.81425
0.00707 0.57034 -0.20639 182.65605 0 1.69196 2.94872 4.51294 -2.15785 -14.4791 6.85097 -0.22974 1.91841 -32.18438 7.42375 111.1513 116.09782 24.0491 2.02955 70.01466 62.80109 -10.67581 60.08351 -54.85049 -36.57251 0.63674 2.38057 9.8129 9.03209 -19.93849 9.17913 -8.66665 -13.1472 17.62459 5.19371 -2.60446 -23.34588 3.16151 5.54082 10.62202
0.00617 0.57006 -0.20574 183.3426 0 1.57689 3.08247 4.70461 -2.76613 -14.60595 7.59916 -0.37992 1.6167 -33.31824 7.50426 110.93754 116.40844 23.92285 2.11429 61.43823 62.39722 -10.08283 59.19854 -54.70881 -36.00472 0.59928 2.28726 9.84587 8.50437 -19.8936 9.3018 -8.76261 -13.18774 17.36893 5.00443 -2.85078 -22.34446 3.00541 5.44289 10.38912
0.00531 0.56984 -0.20493 184.08767 0 1.49731 3.18031 4.84076 -3.19833 -14.73098 7.90925 -0.57022 1.28941 -33.92219 7.58583 110.65177 116.5919 23.6431 2.20578 55.37752 61.76949 -11.79363 59.27123 -54.87137 -35.34481 0.59172 2.20443 9.85268 8.03722 -19.87096 9.42182 -8.83555 -13.36026 17.1566 4.78173 -3.15665 -21.47674 2.78221 5.33916 10.21632
0.00454 0.56981 -0.20375 184.94684 0 1.52969 3.18558 4.83019 -3.16096 -14.81305 7.0812 -0.86641 0.86602 -33.12299 7.64652 110.16007 116.44514 23.01355 2.30273 56.17856 60.91018 -19.85235 61.84614 -55.70726 -34.48486 0.65408 2.15936 9.78824 7.82764 -19.92982 9.53467 -8.83866 -13.94652 17.05349 4.46595 -3.59995 -20.93991 2.39204 5.22949 10.25001
0.0038 0.56985 -0.20241 185.85794 0 1.59888 3.15185 4.76243 -2.94504 -14.89355 5.81604 -1.20238 0.42019 -31.78991 7.70757 109.59775 116.16759 22.24008 2.40393 59.50971 59.84511 -30.09588 65.38504 -56.83454 -33.52421 0.74384 2.12489 9.69579 7.67613 -20.01096 9.6445 -8.81989 -14.65666 16.99486 4.11713 -4.09564 -20.53768 1.93999 5.11584 10.34357
0.00306 0.56985 -0.20115 186.75079 0 1.64947 3.12903 4.71621 -2.80527 -14.9867 4.73489 -1.52374 -0.00153 -30.68018 7.77609 109.07181 115.93858 21.53212 2.50212 61.68333 58.80038 -39.06715 68.53911 -57.84591 -32.55437 0.81741 2.0835 9.61211 7.45965 -20.07604 9.75547 -8.8163 -15.27693 16.92229 3.78368 -4.56127 -20.08461 1.5222 5.00475 10.39536
0.0023 0.56985 -0.19988 187.63306 0 1.70641 3.13609 4.68876 -2.68641 -15.03306 3.70273 -1.83387 -0.48249 -29.64186 7.8156 108.52582 115.75459 20.81188 2.60727 63.8882 58.02065 -49.27232 71.49686 -58.80654 -31.79102 0.90697 2.05076 9.54542 7.39304 -20.1647 9.8679 -8.79116 -16.03698 16.82617 3.44752 -5.06066 -19.59303 1.07464 4.8887 10.50268
0.00157 0.56989 -0.19859 188.53985 0 1.75939 3.07077 4.60872 -2.48077 -15.17453 2.4745 -2.17262 -0.84435 -28.33661 7.91315 108.00727 115.4465 20.08855 2.69779 66.64069 56.66048 -57.41157 75.0648 -59.93578 -30.60787 0.97164 2.00213 9.43699 7.03997 -20.21001 9.97602 -8.80485 -16.53781 16.78622 3.11067 -5.49761 -19.21017 0.67582 4.78288 10.51347
0.00097 0.57001 -0.1973 189.56609 0 1.79359 2.82078 4.39666 -2.09067 -15.58601 0.7522 -2.61671 -0.8826 -26.36608 8.18628 107.56038 114.82359 19.38043 2.74963 70.14113 53.70977 -59.22882 80.28756 -61.4426 -27.98471 0.93549 1.91312 9.21493 5.79621 -20.13166 10.07755 -8.93944 -16.27073 16.91957 2.7664 -5.77127 -19.11457 0.428 4.70441 10.2108
0.0004 0.57018 -0.196 190.6023 0 1.82267 2.49829 4.13397 -1.61783 -16.09118 -1.13977 -3.0816 -0.79849 -24.15719 8.51479 107.1473 114.08145 18.67803 2.78583 74.12633 50.19893 -58.89516 86.05067 -63.10613 -24.99646 0.87706 1.80681 8.95248 4.27889 -20.00908 10.17409 -9.11245 -15.74264 17.1028 2.42476 -5.97594 -19.12042 0.23202 4.63702 9.8156
-0.0002 0.57034 -0.1947 191.59081 0 1.85341 2.20498 3.89475 -1.17505 -16.5489 -2.9144 -3.51316 -0.76311 -22.09641 8.80749 106.73307 113.39632 17.98186 2.82704 77.98874 46.96997 -59.59559 91.43104 -64.71005 -22.37875 0.84598 1.7045 8.71213 2.94349 -19.9057 10.26978 -9.26235 -15.34825 17.24367 2.09124 -6.1964 -19.06515 0.01161 4.56591 9.48397
-0.00072 0.57048 -0.19344 192.76355 0 1.88772 1.92563 3.65088 -0.75625 -17.02865 -4.87587 -4.04641 -0.75661 -19.84812 9.14479 106.25733 112.69352 17.24249 2.87711 81.54623 43.60079 -60.14704 97.42727 -66.28858 -18.90497 0.74597 1.61862 8.45594 1.36662 -19.80597 10.37813 -9.43492 -14.89419 17.46783 1.71863 -6.48238 -19.07442 -0.20867 4.48876 9.06245
-0.00141 0.57065 -0.19208 193.55419 0 1.91354 1.60127 3.40633 -0.27222 -17.48296 -6.48078 -4.37291 -0.66178 -17.94182 9.40282 105.91744 112.00241 16.59728 2.90517 85.79803 40.41473 -60.45353 102.25281 -67.93694 -17.11474 0.78037 1.49454 8.22233 0.22728 -19.68897 10.45946 -9.57018 -14.50121 17.5315 1.42676 -6.61744 -18.97614 -0.41442 4.42726 8.80679
-0.00255 0.57089 -0.19047 193.28703 0 1.91173 1.16421 3.16489 0.38769 -17.85929 -7.0733 -4.11779 -0.343 -17.03286 9.42441 105.95522 111.36173 16.20469 2.87441 92.02481 37.6932 -60.72864 103.73756 -69.87994 -20.18248 1.22144 1.26695 8.07113 0.3607 -19.52545 10.46326 -9.58891 -14.33654 17.12418 1.37212 -6.3279 -18.51521 -0.60647 4.40326 9.0189
-0.00388 0.57114 -0.18875 192.63498 0 1.90245 0.686 2.92633 1.10609 -18.20384 -7.29605 -3.65496 0.05853 -16.48063 9.36539 106.12689 110.74052 15.90891 2.82244 98.88231 35.21038 -60.79651 104.01534 -71.86147 -24.93305 1.79296 1.00185 7.94216 0.94383 -19.34787 10.4409 -9.56965 -14.24241 16.556 1.396 -5.89222 -17.94884 -0.78269 4.39523 9.40243
-0.00514 0.57139 -0.18705 192.15876 0 1.89994 0.23048 2.69144 1.78681 -18.55309 -7.67726 -3.29036 0.41594 -15.77051 9.34542 106.23056 110.11713 15.57306 2.7813 105.32967 32.73544 -60.87213 104.82599 -73.73015 -28.83796 2.28466 0.75543 7.79664 1.32263 -19.18287 10.43319 -9.57054 -14.11822 16.07189 1.37431 -5.54063 -17.45763 -0.95692 4.38192 9.71668
-0.00633 0.57163 -0.18549 191.67818 0 1.88284 -0.24567 2.43318 2.51903 -18.94717 -8.10638 -2.9093 0.80576 -15.03129 9.31571 106.36559 109.4577 15.21926 2.73428 112.33993 29.74681 -61.24549 105.72534 -76.00133 -33.08065 2.8616 0.50172 7.67744 1.69267 -18.98986 10.41342 -9.56049 -13.97692 15.54456 1.39448 -5.11605 -16.85763 -1.16853 4.36063 9.99471
-0.00771 0.57189 -0.1836 191.11626 0 1.89463 -0.68611 2.22563 3.15471 -19.23859 -8.34408 -2.51419 1.1453 -14.44383 9.28825 106.46664 108.88409 14.92765 2.69504 118.29217 27.89554 -60.96916 106.14215 -77.44833 -37.01279 3.29314 0.25428 7.50856 2.19015 -18.85284 10.41291 -9.56384 -13.89094 15.06678 1.34599 -4.80467 -16.45461 -1.29875 4.35963 10.38584
-0.00954 0.57219 -0.18085 190.4141 0 1.98605 -1.03053 2.15178 3.52602 -19.2581 -8.15519 -2.12003 1.33198 -14.1629 9.27042 106.44119 108.50368 14.76851 2.67912 121.40637 29.1002 -59.03096 105.55084 -76.54468 -39.77498 3.28346 0.03527 7.2029 2.94015 -18.87068 10.46935 -9.61211 -13.94538 14.77879 1.08927 -4.88572 -16.64897 -1.21186 4.41066 11.08451
-0.01156 0.5725 -0.17776 189.64536 0 2.10716 -1.33463 2.13011 3.79448 -19.17427 -7.78349 -1.72082 1.46322 -14.0286 9.26011 106.37677 108.21632 14.67156 2.67229 123.38637 31.44781 -56.44586 104.50727 -74.8198 -42.14961 3.1243 -0.17641 6.84563 3.80182 -18.94622 10.54654 -9.67524 -14.05331 14.54359 0.76054 -5.07854 -17.03988 -1.04314 4.48156 11.88488
-0.01351 0.5728 -0.17481 188.91311 0 2.21607 -1.6488 2.08857 4.09893 -19.13471 -7.48686 -1.3311 1.61535 -13.84472 9.25719 106.32986 107.91322 14.5563 2.66378 125.72762 33.29378 -54.10855 103.64889 -73.51529 -44.63871 3.03911 -0.39264 6.50834 4.60735 -18.99759 10.616 -9.73226 -14.13499 14.2748 0.46446 -5.19073 -17.32167 -0.90964 4.54331 12.61439
